<?xml version="1.0"?>
<svg xmlns="http://www.w3.org/2000/svg" id="Outline"  fill="#ffffff" viewBox="0 0 512 512" width="512" height="512"><path d="M184,352h24v24a8,8,0,0,0,8,8h32a8,8,0,0,0,8-8V352h24a8,8,0,0,0,8-8V312a8,8,0,0,0-8-8H256V280a8,8,0,0,0-8-8H216a8,8,0,0,0-8,8v24H184a8,8,0,0,0-8,8v32A8,8,0,0,0,184,352Zm8-32h24a8,8,0,0,0,8-8V288h16v24a8,8,0,0,0,8,8h24v16H248a8,8,0,0,0-8,8v24H224V344a8,8,0,0,0-8-8H192Z"/><path d="M104,384a56,56,0,1,0-56-56A56.063,56.063,0,0,0,104,384Zm0-96a40,40,0,1,1-40,40A40.045,40.045,0,0,1,104,288Z"/><path d="M56,240h96a8,8,0,0,0,8-8V136a8,8,0,0,0-8-8H56a8,8,0,0,0-8,8v96A8,8,0,0,0,56,240Zm8-96h80v80H64Z"/><path d="M184,240h96a8,8,0,0,0,7.155-11.578l-48-96a8,8,0,0,0-14.31,0l-48,96A8,8,0,0,0,184,240Zm48-86.111L267.056,224H196.944Z"/><path d="M488,304H468.944l-45.789-91.578a8,8,0,0,0-14.31,0L363.056,304H360a55.823,55.823,0,0,0-40,16.861V104a8,8,0,0,0-8-8H24a8,8,0,0,0-8,8V408a8,8,0,0,0,8,8H312a8,8,0,0,0,8-8v-8.861a55.9,55.9,0,0,0,64.371,11.272A8,8,0,0,0,392,416h96a8,8,0,0,0,8-8V312A8,8,0,0,0,488,304ZM304,400H32V112H304ZM416,233.889,451.056,304H380.944ZM360,400a40,40,0,1,1,40-40A40.045,40.045,0,0,1,360,400Zm120,0H400v-.861a55.871,55.871,0,0,0,0-78.278V320h80Z"/></svg>
