<svg height="512" viewBox="0 0 128 128" width="512" fill="#ffffff" xmlns="http://www.w3.org/2000/svg"><g><path d="m15.488 46.136a1.764 1.764 0 0 0 -1.823 1.674l-.352 8.146a1.752 1.752 0 0 0 1.674 1.824h.076a1.751 1.751 0 0 0 1.748-1.675l.351-8.146a1.752 1.752 0 0 0 -1.674-1.823z"/><path d="m65.018 88.784 5.013 2.326a1.75 1.75 0 1 0 1.469-3.175l-4.9-2.272a27.859 27.859 0 0 0 1.466-4.476l4.169-.722a1.75 1.75 0 1 0 -.6-3.448l-2.931.507a36.561 36.561 0 0 0 .251-4.274 17.259 17.259 0 0 0 -.655-4.855c3.066-6.831 1.852-14.786 1.8-15.132a1.745 1.745 0 0 0 -1.916-1.463c-5.269.595-9.638 3.984-12.549 6.985a37.965 37.965 0 0 0 -10.793 0c-2.921-3-7.3-6.391-12.556-6.984a1.742 1.742 0 0 0 -1.924 1.462c-.056.346-1.267 8.3 1.8 15.127a17.3 17.3 0 0 0 -.656 4.86 36.561 36.561 0 0 0 .251 4.274l-2.931-.507a1.75 1.75 0 1 0 -.6 3.448l4.169.722a27.805 27.805 0 0 0 1.466 4.477l-4.9 2.271a1.75 1.75 0 1 0 1.474 3.175l5.012-2.326c4.153 6.877 10.621 9.926 14.789 9.926s10.641-3.049 14.782-9.926zm1.809-33.17a28.127 28.127 0 0 1 -.71 8.492 13.7 13.7 0 0 0 -6.44-4.343 18.242 18.242 0 0 1 7.15-4.149zm-33.184 0a18.323 18.323 0 0 1 7.157 4.148 13.708 13.708 0 0 0 -6.444 4.338 28.124 28.124 0 0 1 -.713-8.485zm16.593 39.596c-3.148 0-8.142-2.488-11.548-7.927l.141-.065a1.75 1.75 0 0 0 -1.474-3.175l-.285.133a23.954 23.954 0 0 1 -.842-2.326l1.465.254a1.716 1.716 0 0 0 .3.026 1.75 1.75 0 0 0 .3-3.474l-2.908-.5a31.443 31.443 0 0 1 -.377-4.9 13.686 13.686 0 0 1 .584-4.234 1.73 1.73 0 0 0 .126-.358c1.011-2.738 3.381-5.24 8.72-6.265.051-.006.1-.019.15-.03a31.158 31.158 0 0 1 5.65-.463 30.97 30.97 0 0 1 5.713.476c.027.005.053.012.08.016 5.4 1.034 7.762 3.577 8.757 6.348a1.705 1.705 0 0 0 .066.181 13.588 13.588 0 0 1 .614 4.329 31.443 31.443 0 0 1 -.377 4.9l-2.908.5a1.75 1.75 0 0 0 .3 3.474 1.716 1.716 0 0 0 .3-.026l1.464-.254a24.22 24.22 0 0 1 -.841 2.326l-.285-.133a1.75 1.75 0 0 0 -1.473 3.175l.139.065c-3.409 5.439-8.403 7.927-11.551 7.927z"/><path d="m50.236 80.825c-3.6 0-4.361 1.647-4.361 3.029 0 1.854 1.739 4.655 4.361 4.655s4.361-2.8 4.361-4.655c.003-1.382-.757-3.029-4.361-3.029zm0 4.184c-.178-.014-.477-.336-.672-.663a12 12 0 0 1 1.341 0c-.194.328-.491.654-.668.663z"/><path d="m48.183 72.229a4.75 4.75 0 1 0 -4.75 4.75 4.756 4.756 0 0 0 4.75-4.75zm-4.75 1.25a1.25 1.25 0 1 1 1.25-1.25 1.251 1.251 0 0 1 -1.25 1.25z"/><path d="m57.04 67.479a4.75 4.75 0 1 0 4.75 4.75 4.755 4.755 0 0 0 -4.75-4.75zm0 6a1.25 1.25 0 1 1 1.25-1.25 1.251 1.251 0 0 1 -1.25 1.25z"/><path d="m23.4 17.1h53.669a1.75 1.75 0 0 0 0-3.5h-53.669a1.75 1.75 0 0 0 0 3.5z"/><path d="m123.214 121.146-2.26-10.929a4.606 4.606 0 0 0 -4.092-3.631 9.249 9.249 0 0 0 -1.422-.894 11.49 11.49 0 0 0 -6.96-8.034 9.266 9.266 0 0 0 -11.459-3.758 11.435 11.435 0 0 0 -2.249-.565l-2.963-68.811a5.015 5.015 0 0 1 .014-.568l1.55-17.3a1.751 1.751 0 0 0 -1.743-1.906h-82.79a1.749 1.749 0 0 0 -1.74 1.906l1.551 17.344a3.448 3.448 0 0 1 .011.516l-3.9 90.649a7.751 7.751 0 0 0 7.738 8.085h109a1.75 1.75 0 0 0 1.714-2.1zm-25.331-23.786a5.763 5.763 0 0 1 7.825 2.51 1.747 1.747 0 0 0 1.016.873 8.117 8.117 0 0 1 5.3 5.807h-35.284a8.019 8.019 0 0 1 7.83-6.21 6.121 6.121 0 0 1 .639.029 1.733 1.733 0 0 0 1.556-.643 8.049 8.049 0 0 1 9.59-2.318 1.758 1.758 0 0 0 1.528-.048zm-8.167-89.11-1.271 14.192h-76.419l-1.272-14.192zm-80.282 110.188a4.213 4.213 0 0 1 -1.176-3.123l3.842-89.373h76.267l2.9 67.411a11.5 11.5 0 0 0 -6.63 3.487h-.07a11.508 11.508 0 0 0 -11.179 8.647 9.123 9.123 0 0 0 -1.848 1.1 4.606 4.606 0 0 0 -4.088 3.631l-1.971 9.533h-52.981a4.206 4.206 0 0 1 -3.066-1.313zm78.536 1.312h-18.912l1.825-8.824a1.1 1.1 0 0 1 1.075-.876h44.493a1.1 1.1 0 0 1 1.075.876l1.826 8.824z"/></g></svg>